<?xml version="1.0" encoding="UTF-8"?>
<svg version="1.1" xmlns="http://www.w3.org/2000/svg" width="512" height="512">
<path d="M0 0 C2.4950005 2.58331599 3.0267934 4.11291504 3.875 7.6875 C3.75152674 10.85664698 3.11250396 11.87859742 0.92578125 14.23828125 C-1.96775814 16.62823746 -4.93701034 18.83181631 -8 21 C-8.89847656 21.65871094 -9.79695313 22.31742188 -10.72265625 22.99609375 C-12.52146941 24.3127508 -14.32638778 25.62109971 -16.13671875 26.921875 C-26.4505088 34.40746341 -36.3270684 42.44548399 -46.18408203 50.51611328 C-47.76299721 51.80633195 -49.34778627 53.08935588 -50.93359375 54.37109375 C-62.8256532 64.00136478 -74.25397228 74.1063708 -85.3828125 84.60546875 C-87.66744809 86.75953639 -89.97006071 88.88851932 -92.3046875 90.98828125 C-104.55469632 102.02781489 -115.8271234 114.01495528 -126 127 C-127.21236328 128.485 -127.21236328 128.485 -128.44921875 130 C-140.57638402 145.02855696 -152.84470428 164.01570361 -151 184 C-149.41006275 189.35739726 -146.76997743 193.00489789 -142 196 C-136.01208892 198.88702855 -130.96309302 200.12510547 -124.3515625 200.1328125 C-123.27124756 200.13474609 -122.19093262 200.13667969 -121.07788086 200.13867188 C-119.93843018 200.13416016 -118.79897949 200.12964844 -117.625 200.125 C-116.45267822 200.12306641 -115.28035645 200.12113281 -114.07250977 200.11914062 C-106.84059302 200.08312361 -99.70902787 199.79143624 -92.5 199.234375 C-77.34607801 198.21960344 -60.2689425 197.58042015 -48 208 C-41.78743098 215.22211148 -39.48529869 222.26817966 -39.6953125 231.73046875 C-41.77922758 254.09248053 -59.17281755 272.50305386 -74 288 C-74.88816406 288.71929687 -75.77632813 289.43859375 -76.69140625 290.1796875 C-80.06064106 294.29574085 -80.34314258 298.39198291 -81.0625 303.5625 C-81.38192705 305.54135787 -81.70741094 307.51924794 -82.0390625 309.49609375 C-82.19793945 310.44468262 -82.35681641 311.39327148 -82.52050781 312.37060547 C-83.6780189 318.71805682 -85.08807071 324.78618713 -89.375 329.75 C-92.46043562 331.21925506 -94.62184538 331.31424694 -98 331 C-98.268125 331.86625 -98.53625 332.7325 -98.8125 333.625 C-99.97111987 336.91791964 -101.38209839 339.91127875 -103 343 C-102.34 343.99 -101.68 344.98 -101 346 C-100.56983066 349.97328454 -100.56453107 352.24626243 -102.58203125 355.73828125 C-116.78173663 372.12638255 -133.18584987 382.73348162 -152 393 C-154.43021304 394.32788437 -156.85942972 395.65745373 -159.28588867 396.9921875 C-160.84593009 397.84983759 -162.40846715 398.70296934 -163.97387695 399.55078125 C-172.04080226 403.97989568 -176.87967696 408.12498283 -180 417 C-181.32716084 424.39091297 -179.18170464 430.38112539 -176 437 C-175.66226562 437.73347656 -175.32453125 438.46695312 -174.9765625 439.22265625 C-173.67672681 441.58835721 -172.47587737 441.96838443 -170 443 C-169.13375 443.515625 -168.2675 444.03125 -167.375 444.5625 C-159.51185477 447.91161741 -151.30654757 447.02647451 -143 446 C-142.74347656 445.11957031 -142.48695313 444.23914063 -142.22265625 443.33203125 C-136.88863122 428.79553491 -123.52805923 418.42393874 -110 412 C-106.3655753 410.6447113 -102.81182004 409.69893156 -99 409 C-98.17371094 408.83628906 -97.34742188 408.67257812 -96.49609375 408.50390625 C-92.73383446 407.90268854 -90.62339608 407.73472507 -87.0625 409.25 C-85 411 -85 411 -83 414 C-83.1646858 418.69354533 -84.01386811 422.26758025 -85.875 426.5625 C-90.73806209 438.06346437 -93.42060523 451.9713005 -89 464 C-84.10501245 475.12684144 -75.30097894 484.41343666 -66.36328125 492.4765625 C-64.01675541 495.0987547 -64.05894431 497.58122998 -64 501 C-66.7065308 505.26523168 -69.33675834 506.95465196 -74 508.75 C-75.546875 509.36101562 -75.546875 509.36101562 -77.125 509.984375 C-89.52425951 514.36454819 -105.11497683 513.34416214 -117 508 C-121.588178 505.60672444 -125.80818508 502.9404798 -129.87109375 499.734375 C-133.88324346 497.51041186 -135.26693529 498.03244755 -139.625 499.25 C-162.04972132 504.54015732 -191.2756197 502.63016536 -211.83984375 491.45703125 C-214.32673087 489.77961915 -215.10480168 488.84835831 -216 486 C-215.85111328 484.56720703 -215.85111328 484.56720703 -215.69921875 483.10546875 C-215.66110088 479.81180651 -215.66110088 479.81180651 -218.40625 477.8828125 C-219.4271875 477.30273438 -220.448125 476.72265625 -221.5 476.125 C-222.5209375 475.52945312 -223.541875 474.93390625 -224.59375 474.3203125 C-225.3878125 473.88460938 -226.181875 473.44890625 -227 473 C-227.33 473.33 -227.66 473.66 -228 474 C-231.2559575 474.45583405 -233.82571208 474.65439393 -236.7734375 473.01171875 C-253.45830332 459.6109781 -262.610788 433.95598861 -264.96630859 413.39233398 C-265.99565628 404.48519885 -267.70327034 399.90306439 -274.43359375 393.515625 C-284.34262761 383.80266031 -289.47977614 367.31978964 -290.16796875 353.66796875 C-290.23230618 342.203038 -289.35341259 333.238903 -282 324 C-274.77379072 317.53444433 -264.89806101 313.92786341 -255.19848633 314.02929688 C-254.25255615 314.09181641 -253.30662598 314.15433594 -252.33203125 314.21875 C-238.63161608 315.46562773 -238.63161608 315.46562773 -226.75 310 C-225.1626363 308.33717147 -223.57928771 306.67050069 -222 305 C-190.62970861 282.53887136 -147.344883 273.2212868 -109.328125 277.76953125 C-108.13276123 277.89811523 -106.93739746 278.02669922 -105.70581055 278.15917969 C-103.32451373 278.42279306 -100.94734083 278.72780135 -98.57739258 279.07910156 C-92.14440285 279.78659946 -92.14440285 279.78659946 -86.38085938 277.26074219 C-84.0393156 274.96111614 -82.0093571 272.59269382 -80 270 C-79.46866455 269.37971924 -78.9373291 268.75943848 -78.38989258 268.12036133 C-76.99906233 266.49000316 -75.67933188 264.82506727 -74.375 263.125 C-73.91335449 262.52768066 -73.45170898 261.93036133 -72.97607422 261.31494141 C-65.6763321 251.75618025 -58.05158804 241.28125583 -56.5 229.0625 C-57.19222375 224.82262954 -58.67392823 222.37707453 -61.625 219.3125 C-71.53231354 213.83740567 -84.73345416 215.65567848 -95.60546875 216.49609375 C-102.95045337 217.03927619 -110.26159415 217.21866636 -117.625 217.25 C-118.84445312 217.270625 -120.06390625 217.29125 -121.3203125 217.3125 C-134.38388069 217.36832721 -147.72772603 214.9509674 -157.75 205.9375 C-166.09074009 196.96428673 -168.58872172 186.34276456 -168.3359375 174.4921875 C-166.8386841 146.01962488 -144.04029001 120.6594537 -125.6875 100.90625 C-123.25730486 98.27824828 -120.87370804 95.61639908 -118.5 92.9375 C-111.86638821 85.55627186 -104.90394294 78.50554173 -97.34765625 72.06640625 C-94.72776203 69.76037623 -92.19309438 67.37604285 -89.65478516 64.98095703 C-83.8426693 59.49774721 -77.98164576 54.19354839 -71.734375 49.203125 C-68.64564966 46.71449487 -65.63725407 44.14251241 -62.625 41.5625 C-56.26439586 36.13437557 -49.67374694 31.03534753 -43 26 C-50.5161114 27.32924592 -57.71964926 29.28513386 -65 31.5625 C-66.13010498 31.91473633 -67.26020996 32.26697266 -68.42456055 32.62988281 C-101.12938196 42.91456032 -132.38573386 55.63599692 -163 71 C-163.98500488 71.49387207 -164.97000977 71.98774414 -165.98486328 72.49658203 C-200.26840805 89.80274805 -232.54286328 111.38119604 -262 136 C-262.59184082 136.49274414 -263.18368164 136.98548828 -263.79345703 137.49316406 C-271.00524148 143.50601714 -278.06315183 149.67107592 -285 156 C-285.87527344 156.78246094 -286.75054687 157.56492188 -287.65234375 158.37109375 C-294.04896914 164.13595367 -300.2132417 170.10876326 -306.3125 176.1875 C-307.0653125 176.93572021 -307.818125 177.68394043 -308.59375 178.45483398 C-312.70396225 182.57641297 -316.64437218 186.78780043 -320.44311523 191.19799805 C-322.53443573 193.61857772 -324.70448633 195.96293722 -326.875 198.3125 C-331.7957178 203.71491457 -336.42792553 209.30168859 -341 215 C-341.91225289 216.12020516 -342.82503803 217.23997705 -343.73828125 218.359375 C-357.188156 234.91289312 -369.42055241 252.21982998 -381.08251953 270.07275391 C-382.94533969 272.91655498 -384.82897633 275.74566994 -386.71484375 278.57421875 C-387.83205203 280.27777903 -388.94801018 281.98216004 -390.0625 283.6875 C-390.58150879 284.45900391 -391.10051758 285.23050781 -391.63525391 286.02539062 C-394.34104743 290.10557647 -394.34104743 290.10557647 -394.9296875 294.83984375 C-393.99061962 297.20571825 -393.99061962 297.20571825 -392.0625 299.875 C-387.91106751 306.16504923 -387.42214299 312.64912135 -388 320 C-388.33 320.66 -388.66 321.32 -389 322 C-388.13375 321.76023437 -388.13375 321.76023437 -387.25 321.515625 C-377.58610886 319.30098328 -367.15143307 321.93919306 -358.6875 326.75 C-348.78547891 333.24572584 -342.95034296 341.66070575 -339.625 353.125 C-337.54659858 366.01108879 -340.01115415 376.86534205 -347.28125 387.72265625 C-349 390 -349 390 -350.72265625 391.66796875 C-351.14417969 392.10753906 -351.56570313 392.54710937 -352 393 C-351.87708498 397.42494088 -349.91499321 401.69581151 -347 405 C-344.78219058 406.19388619 -342.54272281 407.07005899 -340.19140625 407.96875 C-336.68943431 409.6167368 -335.16149482 411.82530448 -333 415 C-331.30820534 420.07538397 -331.43628133 424.31964436 -333.625 429.1875 C-335.82850406 433.10061929 -337.77239741 435.18817032 -342 437 C-347.13858232 437.89020511 -351.81057836 438.20142791 -356.484375 435.63671875 C-360.49416277 432.33669269 -363.30385861 429.27078481 -364 424 C-363.68156294 421.07540704 -363.31302243 418.19045511 -362.80078125 415.29296875 C-363.09336975 410.45665303 -365.45404855 407.03582536 -368 403 C-368.57854736 403.02094727 -369.15709473 403.04189453 -369.75317383 403.06347656 C-384.40250941 403.52404666 -396.70055991 403.52016836 -408 393 C-410.77232193 390.08452892 -413.42065073 387.08698716 -416 384 C-434.65165192 411.97747789 -442.22402304 454.04427236 -449.78613281 486.359375 C-450.0384668 487.41769531 -450.29080078 488.47601563 -450.55078125 489.56640625 C-450.76774658 490.49783447 -450.98471191 491.4292627 -451.20825195 492.38891602 C-453.51065941 499.98196187 -458.15929481 504.68255344 -464.75390625 508.80859375 C-472.78093307 513.06640798 -482.21056417 513.55898534 -490.98828125 511.1953125 C-499.03013366 507.56834951 -504.98463965 501.06509905 -508.36100769 492.95773315 C-509.41832099 489.71835568 -509.48429772 486.50990274 -509.43359375 483.140625 C-509.42653915 482.40459045 -509.41948456 481.66855591 -509.41221619 480.91021729 C-509.17602366 472.56286424 -507.23438819 464.77290975 -505.0625 456.75 C-504.65074711 455.1747048 -504.23987435 453.59917932 -503.82983398 452.0234375 C-496.35613908 423.60003308 -487.03758888 395.70061851 -476.0625 368.4375 C-475.51432617 367.06283569 -475.51432617 367.06283569 -474.95507812 365.66040039 C-474.61025391 364.8224292 -474.26542969 363.98445801 -473.91015625 363.12109375 C-473.61246338 362.3933374 -473.31477051 361.66558105 -473.00805664 360.91577148 C-471.89686966 358.8040049 -470.88474548 357.46668413 -469 356 C-467.329375 356.0309375 -467.329375 356.0309375 -465.625 356.0625 C-461.81070108 355.39850015 -461.81070108 355.39850015 -460.43359375 352.2734375 C-459.17447423 349.20993872 -458.03014028 346.14738712 -457 343 C-457.495 342.67 -457.99 342.34 -458.5 342 C-460.8096225 338.92050333 -460.42207904 335.67323256 -460 332 C-459.03284004 329.33098341 -458.06724284 327.03062416 -456.78125 324.53515625 C-456.44508667 323.85754745 -456.10892334 323.17993866 -455.76257324 322.48179626 C-455.05067537 321.05694444 -454.33084667 319.63603008 -453.60351562 318.21899414 C-452.50982893 316.08170773 -451.44881018 313.93043301 -450.390625 311.77539062 C-445.00974971 301.00646587 -439.59653063 291.7172328 -428 287 C-424.38132441 285.7937748 -421.07493749 285.89183082 -417.3125 285.9375 C-416.61060547 285.94201172 -415.90871094 285.94652344 -415.18554688 285.95117188 C-413.45699462 285.96293073 -411.72848635 285.98086546 -410 286 C-409.77570313 285.35804688 -409.55140625 284.71609375 -409.3203125 284.0546875 C-402.17924388 267.53304352 -390.42932935 252.54096596 -380 238 C-379.07453369 236.70884277 -379.07453369 236.70884277 -378.13037109 235.39160156 C-370.12923758 224.2778346 -361.76720309 213.51839499 -353 203 C-352.51934082 202.42024414 -352.03868164 201.84048828 -351.54345703 201.24316406 C-345.78117329 194.30137247 -339.84746279 187.55532426 -333.703125 180.94921875 C-331.72829944 178.8209945 -329.83438278 176.63751399 -327.94921875 174.4296875 C-323.28787736 169.08300363 -318.25282123 164.1032263 -313.23022461 159.09985352 C-311.56573723 157.4407268 -309.90666553 155.77631949 -308.24804688 154.11132812 C-302.66999492 148.5298373 -297.00921749 143.11943096 -291 138 C-289.4551874 136.5867645 -287.91304675 135.17059591 -286.375 133.75 C-281.3366772 129.20397134 -276.05533332 125.03688247 -270.6953125 120.8828125 C-268.22812008 118.96881394 -265.78774105 117.02732797 -263.3671875 115.0546875 C-254.20465857 107.59249723 -244.74778691 100.6777461 -235 94 C-234.38189453 93.57509277 -233.76378906 93.15018555 -233.12695312 92.71240234 C-215.88658369 80.90527637 -198.04114722 70.19090652 -179.59326172 60.38476562 C-177.18941202 59.10114338 -174.79837739 57.79677869 -172.41015625 56.484375 C-124.9771137 30.64011331 -72.37486903 13.69988151 -19.8125 1.875 C-18.50647827 1.57468872 -18.50647827 1.57468872 -17.17407227 1.26831055 C-11.69117886 0.09902452 -5.54963542 -1.18644315 0 0 Z " fill="#000000" transform="translate(509,0)"/>
<path d="M0 0 C0.07927734 0.5669458 0.15855469 1.1338916 0.24023438 1.71801758 C3.92906351 27.03795733 12.4892786 49.58502474 33.5 65.5 C34.66181623 66.3400825 35.82662416 67.17614037 37 68 C34.14426982 71.10956357 31.42910164 73.03945013 27.67578125 74.953125 C26.13180664 75.75943359 26.13180664 75.75943359 24.55664062 76.58203125 C22.41567725 77.68280351 20.27248529 78.77925335 18.12695312 79.87109375 C9.38745923 84.45021874 1.06184052 89.60360245 -3.5 98.6875 C-4.19609375 100.02361328 -4.19609375 100.02361328 -4.90625 101.38671875 C-8.6208151 110.26187609 -8.47574107 122.91650126 -5.375 132 C-0.60646012 142.98764958 5.67255476 149.58290691 16.375 154.875 C27.4148922 159.21260023 41.06178285 158.30420819 52 154 C52.68964844 153.76023437 53.37929688 153.52046875 54.08984375 153.2734375 C56.90712905 151.3952473 57.73954739 149.03176251 59.1875 146 C64.68157169 135.43178567 72.07870528 127.17127972 83 122 C83.66 122.33 84.32 122.66 85 123 C84.7834375 123.88558594 84.566875 124.77117187 84.34375 125.68359375 C80.50899781 142.74469032 80.26115625 158.62252449 89.1796875 174.21875 C91.84558295 178.29196364 94.88679001 181.98998559 98.046875 185.6875 C100 188 100 188 102 191 C93.43283219 193.8557226 84.80568998 192.28478463 76.796875 188.56640625 C71.79800284 185.76675857 67.34437951 182.29204961 63.25 178.2890625 C57.55746591 175.02771485 50.73495633 177.41373575 44.8125 179 C25.34551714 183.7099187 5.13695065 181.63041473 -13.2578125 174.015625 C-16.87873656 172.67454202 -19.19402523 172.44496201 -23 173 C-23.77730469 173.40863281 -24.55460937 173.81726563 -25.35546875 174.23828125 C-28 175 -28 175 -30.67578125 173.6640625 C-31.54589844 172.99117187 -32.41601562 172.31828125 -33.3125 171.625 C-34.19550781 170.95726562 -35.07851563 170.28953125 -35.98828125 169.6015625 C-36.65214844 169.07304687 -37.31601562 168.54453125 -38 168 C-37.62875 166.783125 -37.2575 165.56625 -36.875 164.3125 C-36.38629554 160.02127314 -37.45300427 157.84921569 -40.10131836 154.47998047 C-40.5422583 153.95033691 -40.98319824 153.42069336 -41.4375 152.875 C-56.4626185 134.81935999 -62.3997102 113.15493561 -62.25 89.875 C-62.25773437 88.66457031 -62.26546875 87.45414062 -62.2734375 86.20703125 C-62.2588405 79.49971116 -61.75173222 73.46715092 -60 67 C-59.81179688 66.02933594 -59.62359375 65.05867188 -59.4296875 64.05859375 C-56.72292162 51.26817188 -50.09943455 39.18512585 -42 29 C-41.35804688 28.18273437 -40.71609375 27.36546875 -40.0546875 26.5234375 C-32.37914368 17.3750956 -12.85413608 0 0 0 Z " fill="#FD9D66" transform="translate(321,305)"/>
<path d="M0 0 C4.06007986 2.64787817 7.21564304 5.04562063 8.33959961 9.86865234 C8.78074629 17.89872579 5.34220576 24.01135246 1.66693115 30.87194824 C-0.22943107 34.41860149 -2.05208138 38.00318009 -3.88671875 41.58203125 C-4.25518921 42.29644379 -4.62365967 43.01085632 -5.0032959 43.74691772 C-26.76982527 86.0614645 -42.58435458 132.87599058 -52.88256836 179.28930664 C-53.12628174 180.35785889 -53.36999512 181.42641113 -53.62109375 182.52734375 C-53.9293811 183.94261353 -53.9293811 183.94261353 -54.24389648 185.38647461 C-55.92869696 190.1449039 -59.75354869 192.68927434 -64.125 194.875 C-70.23185229 195.38390436 -73.25459772 194.9525461 -78.125 190.875 C-82.18003013 186.26065537 -82.50062433 181.83986134 -82.125 175.875 C-81.71218178 173.04405348 -81.0990373 170.28230243 -80.4375 167.5 C-80.16522583 166.32401245 -80.16522583 166.32401245 -79.88745117 165.12426758 C-72.30422826 132.93340583 -62.56976786 99.72427771 -48.37280273 69.81982422 C-46.24551376 65.12651691 -45.70156916 62.02794396 -47.125 56.875 C-48.55175173 54.49471709 -48.55175173 54.49471709 -50.125 52.875 C-49.35479456 50.89964958 -48.53178923 48.94483968 -47.6875 47 C-47.23503906 45.90945313 -46.78257813 44.81890625 -46.31640625 43.6953125 C-44.125 40.875 -44.125 40.875 -42.09399414 40.42300415 C-41.3230542 40.33707001 -40.55211426 40.25113586 -39.7578125 40.16259766 C-36.36831068 39.5018276 -36.36831068 39.5018276 -33.72410583 37.42861938 C-32.58768398 35.48159062 -31.68204143 33.53144981 -30.80859375 31.453125 C-30.29015648 30.34671661 -30.29015648 30.34671661 -29.76124573 29.21795654 C-28.66319586 26.86675511 -27.60987998 24.49915781 -26.5625 22.125 C-14.35226687 -5.16681607 -14.35226687 -5.16681607 0 0 Z " fill="#015E7E" transform="translate(97.125,302.125)"/>
<path d="M0 0 C2.13440093 0.01076991 4.26796721 0.0000035 6.40234375 -0.01269531 C14.59900791 -0.01978769 22.4559104 0.57712523 30.50390625 2.26074219 C30.20188237 8.88224339 29.50354573 14.75793448 27.37890625 21.07324219 C25.73299778 26.07680393 24.89407988 29.21661957 26.50390625 34.26074219 C27.4721774 35.6172925 28.46789185 36.95519558 29.50390625 38.26074219 C28.57816233 40.07927475 27.6379163 41.89043102 26.69140625 43.69824219 C26.16933594 44.70757812 25.64726562 45.71691406 25.109375 46.75683594 C23.50390625 49.26074219 23.50390625 49.26074219 20.50390625 50.26074219 C18.50390625 50.26074219 16.50390625 50.26074219 14.50390625 50.26074219 C11.44596182 50.89303876 11.44596182 50.89303876 10.62890625 52.94824219 C10.25765625 53.71136719 9.88640625 54.47449219 9.50390625 55.26074219 C4.96834077 61.55201044 -1.68017708 68.55328082 -9.07421875 71.17480469 C-15.7537592 71.41182064 -22.71631012 63.72314313 -27.3671875 59.44433594 C-41.72590315 44.71677255 -45.82442852 26.0169642 -46.49609375 6.26074219 C-43.78927577 5.62853753 -41.08088035 5.0049965 -38.37109375 4.38574219 C-37.62988281 4.21171875 -36.88867188 4.03769531 -36.125 3.85839844 C-24.09691543 1.12933723 -12.30125723 -0.07362631 0 0 Z " fill="#FCDE58" transform="translate(382.49609375,292.7392578125)"/>
<path d="M0 0 C3.94658995 2.29726878 6.68262107 3.96604408 9 8 C10.87499259 16.64362903 6.73228188 23.6415377 2.79193115 30.99694824 C0.89556893 34.54360149 -0.92708138 38.12818009 -2.76171875 41.70703125 C-3.13018921 42.42144379 -3.49865967 43.13585632 -3.8782959 43.87191772 C-25.64482527 86.1864645 -41.45935458 133.00099058 -51.75756836 179.41430664 C-52.00128174 180.48285889 -52.24499512 181.55141113 -52.49609375 182.65234375 C-52.8043811 184.06761353 -52.8043811 184.06761353 -53.11889648 185.51147461 C-54.80369696 190.2699039 -58.62854869 192.81427434 -63 195 C-65.6723621 195.13415472 -68.32250488 195.04318541 -71 195 C-70.60167969 194.56429687 -70.20335938 194.12859375 -69.79296875 193.6796875 C-68.99826172 192.78636719 -68.99826172 192.78636719 -68.1875 191.875 C-67.66542969 191.29492188 -67.14335938 190.71484375 -66.60546875 190.1171875 C-61.87911552 183.88438105 -60.77980368 177.06369348 -59.25 169.5625 C-56.5151521 156.7790542 -53.043875 144.42325059 -49 132 C-48.63390625 130.85692383 -48.2678125 129.71384766 -47.890625 128.53613281 C-40.10646627 104.26901798 -31.14140529 80.59432028 -20.625 57.375 C-20.31075073 56.68048737 -19.99650146 55.98597473 -19.67272949 55.27041626 C-16.35272537 47.96255068 -12.92953038 40.73991058 -9.15234375 33.65625 C-0.31173973 17.72807627 -0.31173973 17.72807627 0 0 Z " fill="#014B66" transform="translate(96,302)"/>
<path d="M0 0 C3.19653477 1.37686238 4.95404184 2.86243897 7.125 5.5625 C22.21346663 23.20292716 42.95154664 32.91526736 66.03515625 34.8359375 C80.26669671 35.62345357 93.98310566 34.66441195 107.875 31.3046875 C110.72884405 30.89549663 112.03310444 32.03397241 114.28125 33.69140625 C114.8484375 34.12324219 115.415625 34.55507813 116 35 C123.95784148 40.73882799 131.25906303 44.68229133 141.125 45.6875 C147.33243997 46.52959457 149.91842705 49.26480234 153.671875 54.1015625 C154.11015625 54.72804688 154.5484375 55.35453125 155 56 C150.05424264 59.29717158 144.77329471 58.60972089 139 58 C130.0756932 55.56510996 122.81946309 50.71188579 116.25 44.2890625 C110.55746591 41.02771485 103.73495633 43.41373575 97.8125 45 C78.34551714 49.7099187 58.13695065 47.63041473 39.7421875 40.015625 C36.12126344 38.67454202 33.80597477 38.44496201 30 39 C29.22269531 39.40863281 28.44539063 39.81726563 27.64453125 40.23828125 C25 41 25 41 22.32421875 39.6640625 C21.45410156 38.99117188 20.58398438 38.31828125 19.6875 37.625 C18.80449219 36.95726562 17.92148437 36.28953125 17.01171875 35.6015625 C16.34785156 35.07304687 15.68398438 34.54453125 15 34 C15.37125 32.783125 15.7425 31.56625 16.125 30.3125 C16.63732684 25.95430631 15.47151948 23.74790074 12.79589844 20.32373047 C11.88465623 19.2261127 10.96989092 18.13141098 10.05175781 17.03955078 C5.64595103 11.76958751 2.78979799 6.29405644 0 0 Z " fill="#F98D5A" transform="translate(268,439)"/>
<path d="M0 0 C6.33828101 3.66303253 10.81355577 8.61702828 13.08984375 15.63671875 C14.5979156 22.97766354 14.36873841 29.75433727 10.828125 36.4140625 C9.29209116 38.26299213 7.71688395 38.92273806 5.5625 39.9375 C5.20945801 39.31182129 4.85641602 38.68614258 4.49267578 38.04150391 C2.89432433 35.21324703 1.2909793 32.38785254 -0.3125 29.5625 C-1.14587891 28.08523438 -1.14587891 28.08523438 -1.99609375 26.578125 C-2.53105469 25.63710938 -3.06601563 24.69609375 -3.6171875 23.7265625 C-4.10944824 22.85725098 -4.60170898 21.98793945 -5.10888672 21.09228516 C-6.3865759 18.83457593 -6.3865759 18.83457593 -8.4375 16.9375 C-13.28056239 16.3485159 -13.28056239 16.3485159 -17.4375 18.5 C-18.82286646 21.87683075 -18.42913287 24.51952288 -17.4375 27.9375 C-15.79593409 31.34075513 -13.85478739 34.53439027 -11.875 37.75 C-10.84923415 39.44181456 -9.82691219 41.1357236 -8.80859375 42.83203125 C-8.35411865 43.57300049 -7.89964355 44.31396973 -7.43139648 45.07739258 C-6.4375 46.9375 -6.4375 46.9375 -6.4375 48.9375 C-14.61936133 49.63746912 -20.63971708 48.7202672 -27.4375 43.9375 C-33.94934244 38.18598568 -37.36386348 31.84448824 -38 23.1875 C-37.74312463 15.9503156 -34.51594335 9.04594767 -29.43359375 3.9140625 C-20.78429539 -2.81499315 -10.19725253 -4.69691631 0 0 Z " fill="#FCDE57" transform="translate(140.4375,339.0625)"/>
<path d="M0 0 C1.46373047 0.01353516 1.46373047 0.01353516 2.95703125 0.02734375 C4.06111328 0.04474609 4.06111328 0.04474609 5.1875 0.0625 C4.65962891 0.99255859 4.65962891 0.99255859 4.12109375 1.94140625 C-4.58340892 17.55496588 -11.59912364 33.16711669 -13.8125 51.0625 C-16.88069178 48.45361837 -18.26110146 45.43486871 -19.9375 41.8125 C-20.45570313 40.71421875 -20.97390625 39.6159375 -21.5078125 38.484375 C-24.71392337 30.07553333 -25.32288833 18.47144507 -23.234375 9.609375 C-21.1122915 5.17229132 -17.46185843 3.52224337 -13.12890625 1.7890625 C-8.68013639 0.3936642 -4.65969441 -0.0561409 0 0 Z " fill="#F8DB56" transform="translate(258.8125,328.9375)"/>
<path d="M0 0 C0.33 0 0.66 0 1 0 C0.99097656 0.58007812 0.98195313 1.16015625 0.97265625 1.7578125 C1.10231886 5.17414041 1.25504941 7.95112785 3.2734375 10.79296875 C7.74448 14.87568127 13.18305908 17.41794642 19 19 C20.0725 18.87625 21.145 18.7525 22.25 18.625 C25 19 25 19 26.6953125 21.140625 C31 28.14825581 31 28.14825581 31 31 C22.81813867 31.69996912 16.79778292 30.7827672 10 26 C4.2016148 20.87863906 0.32152689 15.10058564 -0.171875 7.2734375 C-0.18558702 4.83955371 -0.13443417 2.42977311 0 0 Z " fill="#F1C63F" transform="translate(103,357)"/>
<path d="M0 0 C2.6875 2.25 2.6875 2.25 5 5 C5.8971875 5.9590625 5.8971875 5.9590625 6.8125 6.9375 C8.50830671 9.88284849 8.54608356 11.65523821 8 15 C5.9375 17.9375 5.9375 17.9375 3 20 C-0.4375 20.375 -0.4375 20.375 -4 19 C-7.46538727 15.34462439 -9.68941967 11.64607574 -10.625 6.6875 C-9.26775814 0.85136 -5.78279771 -1.06214652 0 0 Z " fill="#050502" transform="translate(377,308)"/>
<path d="M0 0 C0.66 0 1.32 0 2 0 C1.57405412 1.44096586 1.13373367 2.87768712 0.6875 4.3125 C0.44386719 5.11300781 0.20023438 5.91351563 -0.05078125 6.73828125 C-1.05354349 9.12757893 -1.98059282 10.39589507 -4 12 C-4.66 12 -5.32 12 -6 12 C-6.99 10.02 -7.98 8.04 -9 6 C-7.2421875 5.0234375 -5.484375 4.046875 -3.7265625 3.0703125 C-1.8387386 1.99102726 -1.8387386 1.99102726 0 0 Z " fill="#F0C53E" transform="translate(152,367)"/>
<path d="M0 0 C0.66 0 1.32 0 2 0 C9.49724753 9.38004046 9.49724753 9.38004046 9.4375 15.1875 C9.293125 16.115625 9.14875 17.04375 9 18 C5.83139145 15.34521986 4.49698412 12.16000194 2.8125 8.4375 C2.28269531 7.28121094 1.75289062 6.12492187 1.20703125 4.93359375 C0 2 0 2 0 0 Z " fill="#EFC43E" transform="translate(236,362)"/>
</svg>
